<svg width="783" height="786" viewBox="0 0 783 786" fill="none" xmlns="http://www.w3.org/2000/svg">
<g filter="url(#filter0_d_232_2077)">
<path d="M14.8594 109.52L587.788 26.4363V766.857L14.8594 744.864V109.52Z" fill="#281A43"/>
<path d="M587.789 27.251L770.619 95.3078V747.998L587.789 766.857V27.251Z" fill="#09080F"/>
<g filter="url(#filter1_d_232_2077)">
<path d="M14.8594 89.9707L587.788 2V26.4363L14.8594 110.334V89.9707Z" fill="#281B44"/>
<path d="M15.3594 109.756V90.3998L587.288 2.58263V26.0042L15.3594 109.756Z" stroke="black"/>
</g>
<g filter="url(#filter2_d_232_2077)">
<path d="M587.789 2.8147L770.619 73.68V98.1163L587.789 27.251V2.8147Z" fill="#1D1333"/>
<path d="M588.289 26.9086V3.54474L770.119 74.0225V97.3863L588.289 26.9086Z" stroke="black"/>
</g>
<g filter="url(#filter3_d_232_2077)">
<path d="M771.523 501.015L586.883 490.726V517.306L771.523 523.308V501.015Z" fill="#1B1631"/>
<path d="M771.023 522.792V501.488L587.383 491.255V516.822L771.023 522.792Z" stroke="black"/>
</g>
<g filter="url(#filter4_i_232_2077)">
<path d="M47.4453 169.796L547.966 111.149V449.185L47.4453 462.217V169.796Z" fill="#271A44"/>
</g>
<path d="M47.9453 461.704V170.241L547.466 111.711V448.698L47.9453 461.704Z" stroke="black"/>
<line x1="133.215" y1="161.651" x2="133.215" y2="458.145" stroke="black" stroke-width="5"/>
<path d="M471.031 122.553V451.628" stroke="black" stroke-width="5"/>
<path d="M46.6328 710.079V521.859L546.058 517.8V724.286L46.6328 710.079Z" fill="url(#paint0_linear_232_2077)" stroke="black" stroke-width="2"/>
<path d="M152.434 520.867L152.434 712.41" stroke="black" stroke-width="2"/>
<path d="M414.914 517.471V721.24" stroke="black" stroke-width="2"/>
<line x1="289.195" y1="644.903" x2="289.195" y2="678.649" stroke="black" stroke-width="2"/>
<path d="M240.023 562.962H358.023V749.951L240.023 747.229V562.962Z" fill="#24183E" stroke="black"/>
<line x1="237.523" y1="556.451" x2="237.96" y2="747.48" stroke="#020202" stroke-width="10"/>
<line x1="232.961" y1="559.911" x2="358.771" y2="559.911" stroke="black" stroke-width="8"/>
<g filter="url(#filter5_d_232_2077)">
<path d="M199.523 748.711L326.55 754.627V767.45L199.523 760.186V748.711Z" fill="#0E0D19"/>
<path d="M199.623 760.091V748.816L326.45 754.722V767.344L199.623 760.091Z" stroke="black" stroke-width="0.2"/>
</g>
<g filter="url(#filter6_d_232_2077)">
<path d="M326.551 754.627L358.77 748.552V760.186L326.551 767.45V754.627Z" fill="black"/>
<path d="M326.651 767.325V754.709L358.67 748.673V760.106L326.651 767.325Z" stroke="black" stroke-width="0.2"/>
</g>
<path d="M235.168 745.983L267.538 746.819L299.106 748.374L329.933 749.205L344.591 749.257L353.848 749.29L360.02 749.312L328.114 755.691L199.559 748.742L235.168 745.983Z" fill="#3F2567"/>
<path d="M235.168 745.983L267.538 746.819L299.106 748.374L329.933 749.205L344.591 749.257L353.848 749.29L360.02 749.312L328.114 755.691L199.559 748.742L235.168 745.983Z" stroke="black"/>
<g filter="url(#filter7_f_232_2077)">
<path d="M262.109 720.495L355.7 620.606V644.903L262.109 725.219V720.495Z" fill="#362157"/>
</g>
<line x1="313.742" y1="644.903" x2="313.742" y2="678.649" stroke="black" stroke-width="2"/>
<line x1="289.195" y1="644.903" x2="289.195" y2="678.649" stroke="black" stroke-width="2"/>
<line x1="301.469" y1="562.562" x2="301.469" y2="747.492" stroke="black" stroke-width="2"/>
<g filter="url(#filter8_f_232_2077)">
<path d="M14.8594 521.772L588.693 518.421V537.97H14.8594V521.772Z" fill="#1A122E"/>
</g>
<g filter="url(#filter9_f_232_2077)">
<path d="M587.789 517.606L771.524 523.308V542.042L587.789 539.599V517.606Z" fill="#0E0B1A"/>
</g>
<g filter="url(#filter10_d_232_2077)">
<path d="M4 502.13L587.813 490.726L588.695 517.606L4 523.308V502.13Z" fill="#271A41"/>
<path d="M5 522.298V503.111L586.846 491.745L587.662 516.616L5 522.298Z" stroke="black" stroke-width="2"/>
</g>
<path d="M615.945 435.264V120.696L744.28 164.809V450.503L615.945 435.264Z" fill="#1E1635" stroke="black" stroke-width="2"/>
<line y1="-1" x2="140.009" y2="-1" transform="matrix(0.969688 0.244347 -0.297082 0.954852 610.418 162.466)" stroke="black" stroke-width="2"/>
<line y1="-1" x2="136.554" y2="-1" transform="matrix(0.994219 0.10737 -0.132171 0.991227 610.418 390.538)" stroke="black" stroke-width="2"/>
<line y1="-1" x2="35.8845" y2="-1" transform="matrix(-0.0504436 0.998727 -0.999164 -0.0408726 713.598 152.691)" stroke="black" stroke-width="2"/>
<line x1="709.168" y1="400.312" x2="709.168" y2="447.556" stroke="black" stroke-width="2"/>
<g filter="url(#filter11_dd_232_2077)">
<path d="M720.189 298.999C715.949 309.544 708.867 317.987 700.079 323.029L698.003 317.931C705.938 313.399 712.298 305.81 716.093 296.371C719.95 286.781 720.939 275.833 718.905 265.301C716.872 254.769 711.932 245.256 704.874 238.313C697.814 231.368 689.045 227.4 679.986 227.078C670.927 226.757 662.138 230.103 655.049 236.552C647.961 243 642.988 252.167 640.919 262.556C638.85 272.945 639.803 283.961 643.625 293.819C647.364 303.465 653.113 311.099 660.951 316.18L658.05 319.444C656.741 318.281 653.438 315.341 649.884 311.454C645.903 307.1 641.648 301.599 639.523 296.118C635.238 285.066 634.168 272.708 636.489 261.056C638.81 249.403 644.381 239.156 652.28 231.971C660.177 224.787 669.936 221.083 679.972 221.439C690.008 221.796 699.76 226.193 707.639 233.943C715.519 241.694 721.058 252.341 723.339 264.16C725.621 275.978 724.509 288.257 720.189 298.999Z" fill="#D9D9D9"/>
<path d="M720.189 298.999C715.949 309.544 708.867 317.987 700.079 323.029L698.003 317.931C705.938 313.399 712.298 305.81 716.093 296.371C719.95 286.781 720.939 275.833 718.905 265.301C716.872 254.769 711.932 245.256 704.874 238.313C697.814 231.368 689.045 227.4 679.986 227.078C670.927 226.757 662.138 230.103 655.049 236.552C647.961 243 642.988 252.167 640.919 262.556C638.85 272.945 639.803 283.961 643.625 293.819C647.364 303.465 653.113 311.099 660.951 316.18L658.05 319.444C656.741 318.281 653.438 315.341 649.884 311.454C645.903 307.1 641.648 301.599 639.523 296.118C635.238 285.066 634.168 272.708 636.489 261.056C638.81 249.403 644.381 239.156 652.28 231.971C660.177 224.787 669.936 221.083 679.972 221.439C690.008 221.796 699.76 226.193 707.639 233.943C715.519 241.694 721.058 252.341 723.339 264.16C725.621 275.978 724.509 288.257 720.189 298.999Z" fill="#CB8CEB"/>
<path d="M720.189 298.999C715.949 309.544 708.867 317.987 700.079 323.029L698.003 317.931C705.938 313.399 712.298 305.81 716.093 296.371C719.95 286.781 720.939 275.833 718.905 265.301C716.872 254.769 711.932 245.256 704.874 238.313C697.814 231.368 689.045 227.4 679.986 227.078C670.927 226.757 662.138 230.103 655.049 236.552C647.961 243 642.988 252.167 640.919 262.556C638.85 272.945 639.803 283.961 643.625 293.819C647.364 303.465 653.113 311.099 660.951 316.18L658.05 319.444C656.741 318.281 653.438 315.341 649.884 311.454C645.903 307.1 641.648 301.599 639.523 296.118C635.238 285.066 634.168 272.708 636.489 261.056C638.81 249.403 644.381 239.156 652.28 231.971C660.177 224.787 669.936 221.083 679.972 221.439C690.008 221.796 699.76 226.193 707.639 233.943C715.519 241.694 721.058 252.341 723.339 264.16C725.621 275.978 724.509 288.257 720.189 298.999Z" stroke="#CB8CEB"/>
<line x1="698.668" y1="318.374" x2="698.668" y2="341.181" stroke="#CB8CEB" stroke-width="3"/>
<line y1="-1.5" x2="43.5668" y2="-1.5" transform="matrix(0.9972 0.0747857 -0.0922034 0.99574 657.188 352.731)" stroke="#CB8CEB" stroke-width="3"/>
<line y1="-1.5" x2="36.3503" y2="-1.5" transform="matrix(0.995975 0.0896327 -0.110438 0.993883 660.809 362.506)" stroke="#CB8CEB" stroke-width="3"/>
<line y1="-1.5" x2="25.3951" y2="-1.5" transform="matrix(0.99794 0.0641497 -0.0791207 0.996865 666.238 372.281)" stroke="#CB8CEB" stroke-width="3"/>
<line x1="674.289" y1="336.44" x2="674.289" y2="285.939" stroke="#C88AE9" stroke-width="2"/>
<line x1="686.961" y1="336.44" x2="686.961" y2="285.939" stroke="#C88AE9" stroke-width="2"/>
<path d="M673.529 286.521V285.083C673.529 284.302 673.389 283.528 673.116 282.797L673.098 282.749C672.738 281.787 672.15 280.927 671.383 280.243L670.925 279.835C670.706 279.639 670.52 279.408 670.376 279.151V279.151C669.906 278.313 669.02 277.793 668.058 277.793H667.658H664.723V277.793C663.514 277.793 662.4 278.446 661.809 279.5L661.787 279.539L661.662 279.762C661.102 280.76 660.809 281.885 660.809 283.03V283.03C660.809 283.03 660.809 283.03 660.809 283.03C660.809 283.03 660.809 283.379 660.809 284.775C660.809 285.287 660.809 285.814 660.809 286.305C660.809 287.602 661.041 288.889 661.495 290.104L661.567 290.295C661.713 290.687 661.89 291.068 662.095 291.433V291.433C662.539 292.226 663.111 292.938 663.789 293.543L664.723 294.375L666.68 296.121L667.066 296.466C668.761 297.978 670.598 299.323 672.55 300.484V300.484L673.804 301.23C674.905 301.884 676.162 302.23 677.443 302.23V302.23H681.357H684.292C684.618 302.23 686.173 303.288 688.206 302.23C689.216 301.705 689.951 301.518 690.588 301.233C691.307 300.912 691.832 300.294 692.329 299.683V299.683C692.841 299.055 693.403 298.468 694.008 297.928L695.056 296.993L695.451 296.641C695.837 296.296 696.163 295.89 696.416 295.439V295.439C696.807 294.742 697.013 293.955 697.013 293.156V292.63V290.884V288.266V286.521V286.521C697.013 285.376 696.719 284.251 696.159 283.253L696.034 283.03L695.447 281.982C695.188 281.52 694.854 281.104 694.459 280.752V280.752C693.583 279.971 692.45 279.539 691.276 279.539H691.142H690.207C688.971 279.539 687.832 280.206 687.228 281.284V281.284V281.284C686.586 282.429 686.249 283.719 686.249 285.031V286.521" stroke="#C88AE9" stroke-width="2"/>
</g>
<path d="M657.344 316.877C657.947 316.617 659.154 316.565 659.154 318.436C659.154 320.307 659.154 322.334 659.154 323.113V325.452V328.57V330.908V332.467V335.585V337.924" stroke="#CB8CEB" stroke-width="3"/>
<path d="M715.717 720.059L597.434 726.983V539.533L715.717 544.425V720.059Z" fill="#1E1635" stroke="black" stroke-width="3"/>
<path d="M768.214 716.992L715.098 720.456V545.308L768.214 549.934V716.992Z" fill="#1E1635" stroke="black" stroke-width="3"/>
</g>
<defs>
<filter id="filter0_d_232_2077" x="4" y="2" width="775.523" height="776.45" filterUnits="userSpaceOnUse" color-interpolation-filters="sRGB">
<feFlood flood-opacity="0" result="BackgroundImageFix"/>
<feColorMatrix in="SourceAlpha" type="matrix" values="0 0 0 0 0 0 0 0 0 0 0 0 0 0 0 0 0 0 127 0" result="hardAlpha"/>
<feOffset dx="4" dy="7"/>
<feGaussianBlur stdDeviation="2"/>
<feComposite in2="hardAlpha" operator="out"/>
<feColorMatrix type="matrix" values="0 0 0 0 0 0 0 0 0 0 0 0 0 0 0 0 0 0 0.25 0"/>
<feBlend mode="normal" in2="BackgroundImageFix" result="effect1_dropShadow_232_2077"/>
<feBlend mode="normal" in="SourceGraphic" in2="effect1_dropShadow_232_2077" result="shape"/>
</filter>
<filter id="filter1_d_232_2077" x="3.15938" y="1.3" width="586.33" height="121.734" filterUnits="userSpaceOnUse" color-interpolation-filters="sRGB">
<feFlood flood-opacity="0" result="BackgroundImageFix"/>
<feColorMatrix in="SourceAlpha" type="matrix" values="0 0 0 0 0 0 0 0 0 0 0 0 0 0 0 0 0 0 127 0" result="hardAlpha"/>
<feOffset dx="-5" dy="6"/>
<feGaussianBlur stdDeviation="3.35"/>
<feComposite in2="hardAlpha" operator="out"/>
<feColorMatrix type="matrix" values="0 0 0 0 0 0 0 0 0 0 0 0 0 0 0 0 0 0 0.25 0"/>
<feBlend mode="normal" in2="BackgroundImageFix" result="effect1_dropShadow_232_2077"/>
<feBlend mode="normal" in="SourceGraphic" in2="effect1_dropShadow_232_2077" result="shape"/>
</filter>
<filter id="filter2_d_232_2077" x="582.389" y="0.414697" width="195.632" height="108.102" filterUnits="userSpaceOnUse" color-interpolation-filters="sRGB">
<feFlood flood-opacity="0" result="BackgroundImageFix"/>
<feColorMatrix in="SourceAlpha" type="matrix" values="0 0 0 0 0 0 0 0 0 0 0 0 0 0 0 0 0 0 127 0" result="hardAlpha"/>
<feOffset dx="1" dy="4"/>
<feGaussianBlur stdDeviation="3.2"/>
<feComposite in2="hardAlpha" operator="out"/>
<feColorMatrix type="matrix" values="0 0 0 0 0 0 0 0 0 0 0 0 0 0 0 0 0 0 0.5 0"/>
<feBlend mode="normal" in2="BackgroundImageFix" result="effect1_dropShadow_232_2077"/>
<feBlend mode="normal" in="SourceGraphic" in2="effect1_dropShadow_232_2077" result="shape"/>
</filter>
<filter id="filter3_d_232_2077" x="582.883" y="490.726" width="192.641" height="40.5818" filterUnits="userSpaceOnUse" color-interpolation-filters="sRGB">
<feFlood flood-opacity="0" result="BackgroundImageFix"/>
<feColorMatrix in="SourceAlpha" type="matrix" values="0 0 0 0 0 0 0 0 0 0 0 0 0 0 0 0 0 0 127 0" result="hardAlpha"/>
<feOffset dy="4"/>
<feGaussianBlur stdDeviation="2"/>
<feComposite in2="hardAlpha" operator="out"/>
<feColorMatrix type="matrix" values="0 0 0 0 0 0 0 0 0 0 0 0 0 0 0 0 0 0 0.25 0"/>
<feBlend mode="normal" in2="BackgroundImageFix" result="effect1_dropShadow_232_2077"/>
<feBlend mode="normal" in="SourceGraphic" in2="effect1_dropShadow_232_2077" result="shape"/>
</filter>
<filter id="filter4_i_232_2077" x="47.4453" y="111.149" width="504.52" height="355.068" filterUnits="userSpaceOnUse" color-interpolation-filters="sRGB">
<feFlood flood-opacity="0" result="BackgroundImageFix"/>
<feBlend mode="normal" in="SourceGraphic" in2="BackgroundImageFix" result="shape"/>
<feColorMatrix in="SourceAlpha" type="matrix" values="0 0 0 0 0 0 0 0 0 0 0 0 0 0 0 0 0 0 127 0" result="hardAlpha"/>
<feOffset dx="8" dy="6"/>
<feGaussianBlur stdDeviation="2"/>
<feComposite in2="hardAlpha" operator="arithmetic" k2="-1" k3="1"/>
<feColorMatrix type="matrix" values="0 0 0 0 0 0 0 0 0 0 0 0 0 0 0 0 0 0 0.75 0"/>
<feBlend mode="normal" in2="shape" result="effect1_innerShadow_232_2077"/>
</filter>
<filter id="filter5_d_232_2077" x="195.523" y="748.711" width="135.027" height="26.7395" filterUnits="userSpaceOnUse" color-interpolation-filters="sRGB">
<feFlood flood-opacity="0" result="BackgroundImageFix"/>
<feColorMatrix in="SourceAlpha" type="matrix" values="0 0 0 0 0 0 0 0 0 0 0 0 0 0 0 0 0 0 127 0" result="hardAlpha"/>
<feOffset dy="4"/>
<feGaussianBlur stdDeviation="2"/>
<feComposite in2="hardAlpha" operator="out"/>
<feColorMatrix type="matrix" values="0 0 0 0 0 0 0 0 0 0 0 0 0 0 0 0 0 0 0.25 0"/>
<feBlend mode="normal" in2="BackgroundImageFix" result="effect1_dropShadow_232_2077"/>
<feBlend mode="normal" in="SourceGraphic" in2="effect1_dropShadow_232_2077" result="shape"/>
</filter>
<filter id="filter6_d_232_2077" x="322.551" y="748.552" width="40.2188" height="26.8979" filterUnits="userSpaceOnUse" color-interpolation-filters="sRGB">
<feFlood flood-opacity="0" result="BackgroundImageFix"/>
<feColorMatrix in="SourceAlpha" type="matrix" values="0 0 0 0 0 0 0 0 0 0 0 0 0 0 0 0 0 0 127 0" result="hardAlpha"/>
<feOffset dy="4"/>
<feGaussianBlur stdDeviation="2"/>
<feComposite in2="hardAlpha" operator="out"/>
<feColorMatrix type="matrix" values="0 0 0 0 0 0 0 0 0 0 0 0 0 0 0 0 0 0 0.25 0"/>
<feBlend mode="normal" in2="BackgroundImageFix" result="effect1_dropShadow_232_2077"/>
<feBlend mode="normal" in="SourceGraphic" in2="effect1_dropShadow_232_2077" result="shape"/>
</filter>
<filter id="filter7_f_232_2077" x="254.809" y="613.306" width="108.19" height="119.214" filterUnits="userSpaceOnUse" color-interpolation-filters="sRGB">
<feFlood flood-opacity="0" result="BackgroundImageFix"/>
<feBlend mode="normal" in="SourceGraphic" in2="BackgroundImageFix" result="shape"/>
<feGaussianBlur stdDeviation="3.65" result="effect1_foregroundBlur_232_2077"/>
</filter>
<filter id="filter8_f_232_2077" x="3.75937" y="507.321" width="596.032" height="41.7491" filterUnits="userSpaceOnUse" color-interpolation-filters="sRGB">
<feFlood flood-opacity="0" result="BackgroundImageFix"/>
<feBlend mode="normal" in="SourceGraphic" in2="BackgroundImageFix" result="shape"/>
<feGaussianBlur stdDeviation="5.55" result="effect1_foregroundBlur_232_2077"/>
</filter>
<filter id="filter9_f_232_2077" x="576.689" y="506.506" width="205.934" height="46.6363" filterUnits="userSpaceOnUse" color-interpolation-filters="sRGB">
<feFlood flood-opacity="0" result="BackgroundImageFix"/>
<feBlend mode="normal" in="SourceGraphic" in2="BackgroundImageFix" result="shape"/>
<feGaussianBlur stdDeviation="5.55" result="effect1_foregroundBlur_232_2077"/>
</filter>
<filter id="filter10_d_232_2077" x="0" y="490.726" width="592.695" height="40.5818" filterUnits="userSpaceOnUse" color-interpolation-filters="sRGB">
<feFlood flood-opacity="0" result="BackgroundImageFix"/>
<feColorMatrix in="SourceAlpha" type="matrix" values="0 0 0 0 0 0 0 0 0 0 0 0 0 0 0 0 0 0 127 0" result="hardAlpha"/>
<feOffset dy="4"/>
<feGaussianBlur stdDeviation="2"/>
<feComposite in2="hardAlpha" operator="out"/>
<feColorMatrix type="matrix" values="0 0 0 0 0 0 0 0 0 0 0 0 0 0 0 0 0 0 0.25 0"/>
<feBlend mode="normal" in2="BackgroundImageFix" result="effect1_dropShadow_232_2077"/>
<feBlend mode="normal" in="SourceGraphic" in2="effect1_dropShadow_232_2077" result="shape"/>
</filter>
<filter id="filter11_dd_232_2077" x="626.989" y="209.116" width="105.007" height="172.793" filterUnits="userSpaceOnUse" color-interpolation-filters="sRGB">
<feFlood flood-opacity="0" result="BackgroundImageFix"/>
<feColorMatrix in="SourceAlpha" type="matrix" values="0 0 0 0 0 0 0 0 0 0 0 0 0 0 0 0 0 0 127 0" result="hardAlpha"/>
<feOffset dx="-1" dy="-5"/>
<feGaussianBlur stdDeviation="3.4"/>
<feComposite in2="hardAlpha" operator="out"/>
<feColorMatrix type="matrix" values="0 0 0 0 0.319899 0 0 0 0 0.228358 0 0 0 0 0.514423 0 0 0 1 0"/>
<feBlend mode="normal" in2="BackgroundImageFix" result="effect1_dropShadow_232_2077"/>
<feColorMatrix in="SourceAlpha" type="matrix" values="0 0 0 0 0 0 0 0 0 0 0 0 0 0 0 0 0 0 127 0" result="hardAlpha"/>
<feOffset dx="3" dy="4"/>
<feGaussianBlur stdDeviation="2"/>
<feComposite in2="hardAlpha" operator="out"/>
<feColorMatrix type="matrix" values="0 0 0 0 0.156863 0 0 0 0 0.0941176 0 0 0 0 0.294118 0 0 0 1 0"/>
<feBlend mode="normal" in2="effect1_dropShadow_232_2077" result="effect2_dropShadow_232_2077"/>
<feBlend mode="normal" in="SourceGraphic" in2="effect2_dropShadow_232_2077" result="shape"/>
</filter>
<linearGradient id="paint0_linear_232_2077" x1="296.346" y1="516.792" x2="296.346" y2="725.315" gradientUnits="userSpaceOnUse">
<stop stop-color="#291B46"/>
<stop offset="1" stop-color="#3A2460"/>
</linearGradient>
</defs>
</svg>
